{"title":"The Escape Artist S01E01 HDTV 480p x264 AAC E-Subs [GWC].mp4","uid":9120547,"size":145334920,"categoryP":"video","categoryS":"tv_shows","magnet":"?xt=urn:btih:679286e131c23a24de4e6e2a10484498394effb1&amp;dn=The+Escape+Artist+S01E01+HDTV+480p+x264+AAC+E-Subs+%5BGWC%5D.mp4&amp;tr=udp%3A%2F%2Ftracker.openbittorrent.com%3A80&amp;tr=udp%3A%2F%2Fopen.demonii.com%3A1337&amp;tr=udp%3A%2F%2Ftracker.coppersurfer.tk%3A6969&amp;tr=udp%3A%2F%2Fexodus.desync.com%3A6969","seeders":1,"leechers":2,"uploader":"canc232","files":1,"time":1383123818,"description":"The Escape Artist S01E01 HDTV 480p x264 AAC E-Subs [GWC].mp4 &lt;a href=&quot;\nhttp://s20.postimg.org/81ozgt5od/escape_atrist.jpg&quot; rel=&quot;nofollow&quot; target=&quot;_NEW&quot;&gt;\nhttp://s20.postimg.org/81ozgt5od/escape_atrist.jpg&lt;/a&gt;\n\n\nwww.imdb.com/title/tt2649522/\n\n\n\nStoryline :\n\nRevolves around Will Burton, a talented junior barrister of peerless intellect and winning charm who specialises in spiriting people out of tight legal corners. He is in high demand as he has never lost a case. But when his talents acquit the notorious prime suspect in an horrific murder trial, that brilliance comes back to bite him with unexpected and chilling results, not to mention a shocking twist in the tale.\n\n\n\nSCREENS :\n &lt;a href=&quot;\nhttp://s20.postimg.org/5vuomb27x/esa_RTST_1.jpg&quot; rel=&quot;nofollow&quot; target=&quot;_NEW&quot;&gt;\nhttp://s20.postimg.org/5vuomb27x/esa_RTST_1.jpg&lt;/a&gt;\n &lt;a href=&quot;\nhttp://s20.postimg.org/m5kup7cvx/esa_RTST_2.jpg&quot; rel=&quot;nofollow&quot; target=&quot;_NEW&quot;&gt;\nhttp://s20.postimg.org/m5kup7cvx/esa_RTST_2.jpg&lt;/a&gt;\n &lt;a href=&quot;\nhttp://s20.postimg.org/bu8hwjl6l/esa_RTST_3.jpg&quot; rel=&quot;nofollow&quot; target=&quot;_NEW&quot;&gt;\nhttp://s20.postimg.org/bu8hwjl6l/esa_RTST_3.jpg&lt;/a&gt;\n\n\n\n\nMEDIA INFO :\n\nGeneral \nFormat : MPEG-4 \nFile size : 139 MiB \nDuration : 57mn 2s \nOverall bit rate : 340 Kbps \n\nVideo \nFormat : AVC \nFormat profile : &lt;a class=&quot;__cf_email__&quot; href=&quot;/cdn-cgi/l/email-protection&quot; data-cfemail=&quot;1c54757b745c502f322c&quot;&gt;[email&amp;#160;protected]&lt;/a&gt;&lt;script cf-hash='f9e31' type=&quot;text/javascript&quot;&gt;\n/* &lt;![CDATA[ */!function(){try{var t=&quot;currentScript&quot;in document?document.currentScript:function(){for(var t=document.getElementsByTagName(&quot;script&quot;),e=t.length;e--;)if(t[e].getAttribute(&quot;cf-hash&quot;))return t[e]}();if(t&amp;&amp;t.previousSibling){var e,r,n,i,c=t.previousSibling,a=c.getAttribute(&quot;data-cfemail&quot;);if(a){for(e=&quot;&quot;,r=parseInt(a.substr(0,2),16),n=2;a.length-n;n+=2)i=parseInt(a.substr(n,2),16)^r,e+=String.fromCharCode(i);e=document.createTextNode(e),c.parentNode.replaceChild(e,c)}}}catch(u){}}();/* ]]&gt; */&lt;/script&gt; \nFormat settings, ReFrames : 4 frames \nDuration : 57mn 2s \nWidth : 720 pixels \nHeight : 404 pixels \nDisplay aspect ratio : 16:9 \nFrame rate : 25.000 fps \nStream size : 113 MiB (81%) \nTitle : The Escape Artist S01E01 HDTV 480p x264 AAC E-Subs [GWC] \nWriting library : x264 core\nLanguage : English \n\nAudio \nFormat : AAC \nFormat profile : HE-AAC / LC \nDuration : 57mn 2s \nBit rate mode : Variable \nChannel(s) : 2 channels \nSampling rate : 48.0 KHz / 24.0 KHz \nStream size : 24.5 MiB (18%) \nLanguage : English \n\nText \nFormat : Timed Text \nDuration : 57mn 1s \nStream size : 29.1 KiB (0%) \nTitle : English Subtitle by Stubbie \nLanguage : English","torrent":{"xt":"urn:btih:679286e131c23a24de4e6e2a10484498394effb1","amp;dn":"The+Escape+Artist+S01E01+HDTV+480p+x264+AAC+E-Subs+%5BGWC%5D.mp4","amp;tr":["udp%3A%2F%2Ftracker.openbittorrent.com%3A80","udp%3A%2F%2Fopen.demonii.com%3A1337","udp%3A%2F%2Ftracker.coppersurfer.tk%3A6969","udp%3A%2F%2Fexodus.desync.com%3A6969"],"infoHash":"679286e131c23a24de4e6e2a10484498394effb1","infoHashBuffer":{"type":"Buffer","data":[103,146,134,225,49,194,58,36,222,78,110,42,16,72,68,152,57,78,255,177]},"announce":[],"urlList":[]}}